<?xml version="1.0" encoding="utf-8"?>
<!-- Generator: Adobe Illustrator 21.0.0, SVG Export Plug-In . SVG Version: 6.00 Build 0)  -->
<svg version="1.1" id="Capa_1" xmlns="http://www.w3.org/2000/svg" xmlns:xlink="http://www.w3.org/1999/xlink" x="0px" y="0px"
	 viewBox="0 0 240 240" style="enable-background:new 0 0 240 240;" xml:space="preserve">
<style type="text/css">
	.st0{fill:#FFFFFF;}
</style>
<g>
	<path class="st0" d="M144.2,78.5c-2.9,0-5.3-1-7.4-3s-3-4.5-3-7.4V9.2H47.3c-2.9,0-5.3,1-7.4,3c-2,2-3,4.5-3,7.4v200.8
		c0,2.9,1,5.3,3,7.4c2,2,4.5,3,7.4,3h145.4c2.9,0,5.3-1,7.3-3s3-4.5,3-7.4v-142L144.2,78.5L144.2,78.5z M155.1,178.2
		c-2,5.6-5.5,10-10.4,13.3s-10.4,5-16.5,5.2v12.2c0,1.2-0.4,2.1-1.2,2.9c-0.8,0.8-1.7,1.1-2.9,1.1H116c-1.2,0-2.2-0.4-2.9-1.1
		c-0.8-0.8-1.1-1.7-1.1-2.9v-12.2c-8.1,0-15.5-2.5-22.1-7.6c-0.8-0.8-1.3-1.9-1.5-3c-0.2-1.2,0.2-2.3,1.3-3.3l8.6-8.6
		c0.7-0.5,1.5-0.8,2.4-1s1.8,0.1,2.7,0.8c2.5,1.7,5.4,2.5,8.6,2.5h17c2,0,3.8-0.7,5.2-2.2c1.4-1.4,2.2-3.2,2.2-5.5
		c0-1.5-0.5-3-1.5-4.3c-1-1.4-2.3-2.3-3.8-2.8l-26.1-7.6c-5.8-1.7-10.6-4.7-14.5-9.1c-3.9-4.4-6.2-9.5-6.8-15.2
		c-0.3-5.4,0.7-10.5,3-15.1c2.4-4.7,5.8-8.4,10.2-11.2c4.4-2.8,9.3-4.2,14.7-4.2h0.5V87.1c0-1.2,0.4-2.2,1.1-2.9
		c0.8-0.8,1.7-1.2,2.9-1.2h8.1c1.2,0,2.2,0.4,2.9,1.2s1.2,1.7,1.2,2.9v12.2c8.1,0,15.4,2.5,21.8,7.6c1,0.8,1.6,1.9,1.8,3
		c0.2,1.2-0.2,2.2-1.3,3l-8.6,8.9c-0.7,0.5-1.5,0.8-2.4,1s-1.8,0-2.7-0.5c-2.5-1.9-5.4-2.8-8.6-2.8h-17c-2,0-3.8,0.7-5.2,2.2
		s-2.1,3.2-2.1,5.5c0,1.5,0.5,3,1.5,4.3s2.3,2.3,3.8,2.8l27.4,7.9c4.9,1.5,9.1,4.2,12.6,7.9s5.8,8.1,6.8,13.1
		C157,168.1,156.8,173.1,155.1,178.2z"/>
	<path class="st0" d="M200.1,54.6l-42.4-42.4c-2-2-4.5-3-7.4-3h-2.6v55.4h55.4V62C203.1,59.1,202.1,56.7,200.1,54.6z"/>
</g>
</svg>
