<?xml version="1.0" encoding="utf-8"?>
<!-- Generator: Adobe Illustrator 21.0.0, SVG Export Plug-In . SVG Version: 6.00 Build 0)  -->
<svg version="1.1" id="Capa_1" xmlns="http://www.w3.org/2000/svg" xmlns:xlink="http://www.w3.org/1999/xlink" x="0px" y="0px"
	 viewBox="0 0 240 240" style="enable-background:new 0 0 240 240;" xml:space="preserve">
<style type="text/css">
	.st0{fill:#211915;}
	.st1{fill:#FFFFFF;}
</style>
<g>
	<g>
		<path class="st1" d="M93.7,115c0,0.9,0.1,1.8,0.1,2.7c0,7.6,0.3,15.2-0.1,22.7c-0.4,7.2,1.7,13.5,4.3,20
			c3.6,9.1,6.9,18.3,10.3,27.4c3.3,8.7,6.6,17.4,9.9,26.1c0.7,1.9,1.4,3.8,2.4,6.5c0.8-1.4,1.3-1.9,1.6-2.6
			c4.1-10.6,8.2-21.3,12.3-31.9c1.6-4.2,3.4-8.3,5.1-12.5c3.2-8.3,6.4-16.6,9.5-25c0.4-1.2,0.5-2.7,0.4-4
			c-1.1-8.9-2.2-17.7-3.4-26.6c-0.1-0.7-0.7-1.4-0.8-2.1c-0.1-0.5,0.2-1.1,0.5-2.2c5.7,7.5,13.8,9.7,21.4,12.7
			c5.5,2.2,11.1,4.3,16.5,6.9c3.7,1.7,6.9,4.2,9.1,7.9c6.3,10.8,9.3,22.6,11,34.8c1.2,8.6,2.2,17.2,2.9,25.8c0.2,3-0.3,6.1-1.1,9
			c-0.4,1.5-1.9,3.3-3.3,3.9c-5.3,2.2-10.8,4.1-16.2,5.9c-3.8,1.2-7.7,2.2-11.6,3.1c-6.4,1.3-12.8,2.6-19.3,3.6
			c-9.6,1.4-19.2,2.7-28.8,3.5c-5.5,0.5-11,0.1-16.5-0.3c-6.7-0.5-13.4-0.9-20-2.2c-12.8-2.4-25.6-5.3-38.3-8.3c-4.1-1-8-2.9-12-4.3
			c-3.6-1.3-5.7-3.8-5.8-7.6c-0.1-5-0.3-10,0.2-15c0.8-7.9,1.6-15.8,3.2-23.5c1.6-7.4,4.5-14.6,6.7-21.9
			c2.8-9.4,10.3-13.7,18.4-17.2c5-2.2,10.4-3.5,15.5-5.7c5.7-2.5,11.5-4.9,15.6-9.9C93.3,114.9,93.5,115,93.7,115z"/>
		<path class="st1" d="M163.9,49.6c-0.4,2.4-1,6.1-1.7,9.8c-0.5,2.2-0.4,4.2,0.4,6.4c0.7,2,0.3,4.4,0.3,6.7c0,1.2-0.3,2.4-0.7,3.5
			c-1.5,4.4-3.2,8.8-4.5,13.3c-3.6,12-10.1,22-20.1,29.6c-7.1,5.4-15.2,8-24.1,5.6c-7.8-2.1-13.6-7.3-18.7-13.5
			c-6.1-7.3-10.1-15.5-11.7-24.8c-0.1-0.7-0.6-1.4-1-2C78.8,79.4,78,74,78,68.6c0-1.5,0.4-3.3,1.3-4.6c1.2-1.8,1-3.4,0.6-5.3
			c-1.4-7.8-1.8-15.5,0.6-23.2c1.8-5.9,5.5-10.5,9.7-14.8c5.1-5.2,11.2-8.9,18.1-10.7c4.9-1.3,9.9-0.8,14.8,0.7
			c5.2,1.6,10.5,2.7,15.6,4.6c8.4,3.1,16.1,7.5,20.6,15.7C162.4,36.3,163.5,42.2,163.9,49.6z"/>
		<path class="st1" d="M120.5,214.7c-1.1-6.5-2.1-13-3.2-19.5c-1-5.8-2.1-11.6-3.1-17.5c-1.2-7.3-2.2-14.6-3.2-21.9
			c-0.1-0.7,0.5-1.8,1.1-2.3c2-1.6,4-3.2,6.3-4.3c1.9-1,1.8-1.7,0.8-3.3c-3.5-5.3-7-10.7-10.4-16c-0.3-0.4-0.4-0.9-0.9-2
			c9,3.3,17.6,2.7,26.8-0.1c-1.1,1.8-1.7,2.8-2.3,3.9c-3.1,4.8-6.3,9.7-9.5,14.5c-0.8,1.2-0.7,2.2,0.6,2.9c2,1.1,3.9,2.4,5.9,3.6
			c1.6,0.9,2.2,2.2,1.9,4c-1.5,9.2-2.8,18.4-4.3,27.6c-1.6,9.6-3.3,19.2-5,28.8c-0.1,0.5-0.4,1-0.6,1.6
			C121,214.7,120.7,214.7,120.5,214.7z"/>
	</g>
</g>
</svg>
