<?xml version="1.0" encoding="utf-8"?>
<!-- Generator: Adobe Illustrator 21.0.0, SVG Export Plug-In . SVG Version: 6.00 Build 0)  -->
<svg version="1.1" id="Capa_1" xmlns="http://www.w3.org/2000/svg" xmlns:xlink="http://www.w3.org/1999/xlink" x="0px" y="0px"
	 viewBox="0 0 80 80" style="enable-background:new 0 0 80 80;" xml:space="preserve">
<style type="text/css">
	.st0{fill:#97C93D;}
</style>
<path class="st0" d="M76.5,30.3c0.8,0.7,1.2,1.6,1.2,2.6c0,1.1-0.4,2-1.2,2.6L50.6,58c-0.8,0.7-1.6,1-2.6,0.9s-1.7-0.5-2.4-1.1
	c-0.6-0.6-1-1.4-1-2.4V42.4c-8,0.1-14.2,0.9-18.4,2.5c-4.7,1.7-7.7,4.5-9,8.5s-0.8,9.4,1.3,16.4c0.3,0.8,0.2,1.5-0.2,2.1
	s-1,1-1.8,1.1c-0.7,0.1-1.4,0-2.1-0.5c-3.4-2.5-6.3-5.7-8.5-9.7C3.6,58.4,2.4,54,2.4,49.7c0-10.3,4.1-17.6,12.4-21.9
	c6.6-3.4,16.6-5.2,30-5.4V10.6c0-1,0.3-1.8,1-2.4c0.6-0.6,1.4-1,2.4-1.1C48.9,7,49.8,7.3,50.6,8L76.5,30.3z"/>
</svg>
