<?xml version="1.0" encoding="utf-8"?>
<!-- Generator: Adobe Illustrator 21.0.0, SVG Export Plug-In . SVG Version: 6.00 Build 0)  -->
<svg version="1.1" id="Capa_1" xmlns="http://www.w3.org/2000/svg" xmlns:xlink="http://www.w3.org/1999/xlink" x="0px" y="0px"
	 viewBox="0 0 240 240" style="enable-background:new 0 0 240 240;" xml:space="preserve">
<style type="text/css">
	.st0{fill:#FFFFFF;}
</style>
<path class="st0" d="M144.8,156.7c8.5,0,16.4,2.1,23.7,6.4c7.3,4.2,13.1,10,17.3,17.3s6.4,15.2,6.4,23.7v14.8c0,4.7-1.6,8.7-4.9,12
	c-3.3,3.3-7.3,4.9-12,4.9H50.8c-4.7,0-8.7-1.6-12-4.9c-3.3-3.3-4.9-7.3-4.9-12V204c0-8.5,2.1-16.4,6.4-23.7
	c4.2-7.3,10-13.1,17.3-17.3s15.2-6.4,23.7-6.4h6c8.2,3.8,16.8,5.6,25.8,5.6s17.5-1.9,25.8-5.6L144.8,156.7L144.8,156.7z M113,145.4
	c-8.2,0-15.8-2-22.8-6c-6.9-4-12.4-9.5-16.4-16.4s-6-14.5-6-22.8s2-15.8,6-22.8c4-6.9,9.5-12.4,16.4-16.4s14.5-6,22.8-6
	s15.8,2,22.8,6c6.9,4,12.4,9.5,16.4,16.4s6,14.5,6,22.8s-2,15.8-6,22.8s-9.5,12.4-16.4,16.4C128.8,143.4,121.2,145.4,113,145.4z
	 M201.6,26.7c1.3,0,2.4,0.4,3.2,1.3s1.3,1.9,1.3,3.2v9c0,1.3-0.4,2.4-1.3,3.2s-1.9,1.3-3.2,1.3h-18v18c0,1.3-0.4,2.4-1.3,3.2
	c-0.8,0.8-1.9,1.3-3.2,1.3h-9c-1.3,0-2.4-0.4-3.2-1.3c-0.8-0.8-1.3-1.9-1.3-3.2v-18h-18c-1.3,0-2.4-0.4-3.2-1.3s-1.3-1.9-1.3-3.2v-9
	c0-1.3,0.4-2.4,1.3-3.2s1.9-1.3,3.2-1.3h18v-18c0-1.3,0.4-2.4,1.3-3.2c0.8-0.8,1.9-1.3,3.2-1.3h9c1.3,0,2.4,0.4,3.2,1.3
	c0.8,0.8,1.3,1.9,1.3,3.2v18H201.6z"/>
<g>
	
		<image style="overflow:visible;enable-background:new    ;" width="627" height="627" id="ktgsQq_2_" xlink:href="6C44C396EA059A1B.png"  transform="matrix(0.9984 0 0 0.9984 -1595.176 -26.0634)">
	</image>
</g>
</svg>
