<?xml version="1.0" encoding="utf-8"?>
<!-- Generator: Adobe Illustrator 21.0.0, SVG Export Plug-In . SVG Version: 6.00 Build 0)  -->
<svg version="1.1" id="Capa_1" xmlns="http://www.w3.org/2000/svg" xmlns:xlink="http://www.w3.org/1999/xlink" x="0px" y="0px"
	 viewBox="0 0 80 80" style="enable-background:new 0 0 80 80;" xml:space="preserve">
<style type="text/css">
	.st0{fill:#FF0000;}
</style>
<path class="st0" d="M29.4,7.8C30.2,7.2,31,6.9,32,7c0.9,0.1,1.7,0.5,2.4,1.1c0.6,0.6,1,1.5,1,2.4v11.8c13.5,0.2,23.5,2,30.1,5.5
	c8.3,4.3,12.4,11.7,12.4,22c0,4.3-1.2,8.7-3.7,13c-2.3,4-5.1,7.3-8.6,9.7c-0.7,0.5-1.4,0.7-2.1,0.5c-0.7-0.1-1.3-0.5-1.8-1.1
	c-0.4-0.6-0.5-1.3-0.2-2.1c2.2-7,2.6-12.5,1.3-16.5s-4.3-6.8-9-8.5c-4.2-1.6-10.4-2.4-18.5-2.5v13c0,1-0.3,1.8-1,2.4
	c-0.6,0.6-1.4,1-2.4,1.1C31,59,30.2,58.7,29.4,58l-26-22.4c-0.8-0.7-1.2-1.6-1.2-2.7c0-1.1,0.4-2,1.2-2.7L29.4,7.8z"/>
</svg>
